<?xml version="1.0" encoding="UTF-8"?>
<svg id="Calque_2" data-name="Calque 2" xmlns="http://www.w3.org/2000/svg" viewBox="0 0 257.6 210">
  <defs>
    <style>
      .cls-1 {
        fill: #fff;
      }
    </style>
  </defs>
  <g id="Calque_1-2" data-name="Calque 1">
    <path class="cls-1" d="M257.6,75c0-41.42-22.9-75-51.15-75s-51.15,33.58-51.15,75c0,35.88,17.19,65.86,40.15,73.24v44.41c0,9.58,4.92,17.34,11,17.34s11-7.76,11-17.34v-44.41c22.96-7.38,40.15-37.36,40.15-73.24Z"/>
    <path class="cls-1" d="M94.97,0c-4.05,0-7.33,3.34-7.33,7.46v86.87c0,3.09-13.21,3.09-13.21,0V7.46c0-4.12-3.28-7.46-7.33-7.46h-2.01c-4.05,0-7.33,3.34-7.33,7.46v86.87c0,3.09-13.21,3.09-13.21,0V7.46c0-4.12-3.28-7.46-7.33-7.46h-2.01c-4.05,0-7.33,3.34-7.33,7.46v86.87c0,3.09-13.21,3.09-13.21,0V7.44c0-3.17-1.94-6.07-4.91-7.04C4.68-1.26,0,2.54,0,7.46v108.91c0,19.99,15.94,36.2,35.59,36.2h4.56v43.33c0,7.79,4.92,14.1,11,14.1s11-6.31,11-14.1v-43.33h4.55c19.66,0,35.6-16.21,35.6-36.22V7.46c0-4.12-3.28-7.46-7.33-7.46Z"/>
  </g>
</svg>